<svg width="50" height="50" viewBox="0 0 50 50" fill="none" xmlns="http://www.w3.org/2000/svg">
<path d="M4.57188 7.63125C4.61876 6.41973 5.13324 5.2735 6.00729 4.43325C6.88133 3.593 8.04695 3.12409 9.25938 3.125H12.6188C13.8301 3.12571 14.9941 3.59533 15.8668 4.43542C16.7396 5.2755 17.2532 6.42081 17.3 7.63125L18.625 42.0063C18.6494 42.6369 18.5462 43.266 18.3216 43.8558C18.097 44.4456 17.7556 44.984 17.3178 45.4386C16.8801 45.8933 16.3551 46.2549 15.7742 46.5017C15.1933 46.7485 14.5686 46.8755 13.9375 46.875H7.9375C7.30638 46.8755 6.68166 46.7485 6.1008 46.5017C5.51994 46.2549 4.9949 45.8933 4.55717 45.4386C4.11945 44.984 3.77804 44.4456 3.55342 43.8558C3.3288 43.266 3.2256 42.6369 3.25 42.0063L4.57188 7.63125ZM9.25938 6.25C8.85558 6.24968 8.46734 6.40569 8.17605 6.68533C7.88475 6.96497 7.71303 7.34653 7.69688 7.75L6.37188 42.125C6.36346 42.3354 6.39764 42.5453 6.47239 42.7422C6.54713 42.939 6.66089 43.1187 6.80683 43.2705C6.95276 43.4223 7.12787 43.543 7.32164 43.6254C7.5154 43.7078 7.72382 43.7502 7.93438 43.75H13.9406C14.1512 43.7502 14.3596 43.7078 14.5534 43.6254C14.7471 43.543 14.9222 43.4223 15.0682 43.2705C15.2141 43.1187 15.3279 42.939 15.4026 42.7422C15.4774 42.5453 15.5115 42.3354 15.5031 42.125L14.1781 7.75C14.162 7.34653 13.9903 6.96497 13.699 6.68533C13.4077 6.40569 13.0194 6.24968 12.6156 6.25H9.25938ZM42.1875 46.875C43.4307 46.875 44.623 46.3811 45.5021 45.5021C46.3811 44.623 46.875 43.4307 46.875 42.1875V14.0625C46.8756 13.7531 46.7842 13.4504 46.6126 13.193C46.4409 12.9355 46.1967 12.7348 45.9108 12.6163C45.625 12.4978 45.3104 12.4669 45.0069 12.5274C44.7034 12.5879 44.4248 12.7372 44.2063 12.9563L34.375 22.7906V14.0625C34.3751 13.7613 34.2881 13.4665 34.1246 13.2136C33.961 12.9607 33.7278 12.7604 33.4531 12.637C33.1784 12.5135 32.8739 12.472 32.5761 12.5176C32.2784 12.5631 32.0002 12.6938 31.775 12.8938L21 22.4719L21.1563 26.5156L31.25 17.5406V26.5625C31.2494 26.8719 31.3408 27.1746 31.5124 27.432C31.6841 27.6895 31.9283 27.8902 32.2142 28.0087C32.5 28.1272 32.8146 28.1581 33.1181 28.0976C33.4216 28.0371 33.7002 27.8878 33.9188 27.6688L43.75 17.8344V42.1875C43.75 42.6019 43.5854 42.9993 43.2924 43.2924C42.9993 43.5854 42.6019 43.75 42.1875 43.75H40.625V34.375C40.625 33.5462 40.2958 32.7513 39.7097 32.1653C39.1237 31.5792 38.3288 31.25 37.5 31.25H28.125C27.2962 31.25 26.5013 31.5792 25.9153 32.1653C25.3292 32.7513 25 33.5462 25 34.375V43.75H21.5938C21.3631 44.8832 20.8827 45.9508 20.1875 46.875H42.1875ZM28.125 43.75V34.375H37.5V43.75H28.125Z" fill="white"/>
</svg>
