<svg width="50" height="50" viewBox="0 0 50 50" fill="none" xmlns="http://www.w3.org/2000/svg">
<path d="M25 4.16675C13.5125 4.16675 4.16666 13.5126 4.16666 25.0001C4.16666 36.4876 13.5125 45.8334 25 45.8334C36.4875 45.8334 45.8333 36.4876 45.8333 25.0001C45.8333 13.5126 36.4875 4.16675 25 4.16675ZM25 41.6668C15.8104 41.6668 8.33332 34.1897 8.33332 25.0001C8.33332 15.8105 15.8104 8.33342 25 8.33342C34.1896 8.33342 41.6667 15.8105 41.6667 25.0001C41.6667 34.1897 34.1896 41.6668 25 41.6668Z" fill="white"/>
<path d="M17.7083 22.9167C19.4342 22.9167 20.8333 21.5176 20.8333 19.7917C20.8333 18.0659 19.4342 16.6667 17.7083 16.6667C15.9825 16.6667 14.5833 18.0659 14.5833 19.7917C14.5833 21.5176 15.9825 22.9167 17.7083 22.9167Z" fill="white"/>
<path d="M32.2771 22.8876C33.9949 22.8876 35.3875 21.495 35.3875 19.7772C35.3875 18.0593 33.9949 16.6667 32.2771 16.6667C30.5592 16.6667 29.1667 18.0593 29.1667 19.7772C29.1667 21.495 30.5592 22.8876 32.2771 22.8876Z" fill="white"/>
<path d="M25 37.4999C35.4167 37.4999 37.5 27.0833 37.5 27.0833H12.5C12.5 27.0833 14.5833 37.4999 25 37.4999Z" fill="white"/>
</svg>
