<svg width="32" height="32" viewBox="0 0 32 32" fill="none" xmlns="http://www.w3.org/2000/svg">
<path d="M29.3334 11.4773V22.3333C29.3334 23.4401 28.9099 24.505 28.1498 25.3096C27.3896 26.1141 26.3504 26.5973 25.2454 26.6599L25 26.6666H7.00002C5.89317 26.6667 4.82825 26.2432 4.02371 25.483C3.21918 24.7229 2.73602 23.6837 2.67335 22.5786L2.66669 22.3333V11.4773L15.536 18.2186C15.6792 18.2936 15.8384 18.3327 16 18.3327C16.1616 18.3327 16.3209 18.2936 16.464 18.2186L29.3334 11.4773ZM7.00002 5.33325H25C26.0741 5.33312 27.11 5.73191 27.9067 6.45227C28.7035 7.17264 29.2043 8.16323 29.312 9.23192L16 16.2053L2.68802 9.23192C2.79138 8.20567 3.25742 7.24994 4.00235 6.53654C4.74729 5.82313 5.72226 5.39883 6.75202 5.33992L7.00002 5.33325H25H7.00002Z" fill="#1B1700"/>
</svg>
