<svg width="36" height="36" viewBox="0 0 36 36" fill="none" xmlns="http://www.w3.org/2000/svg">
<g clip-path="url(#clip0_2_55)">
<path d="M18.1147 4.4978H18.315C20.1645 4.50455 29.5357 4.57205 32.0625 5.25155C32.8264 5.45893 33.5224 5.86315 34.0811 6.42382C34.6398 6.98449 35.0416 7.68197 35.2463 8.44655C35.4735 9.30155 35.6333 10.4333 35.7412 11.6011L35.7638 11.8351L35.8132 12.4201L35.8312 12.6541C35.9775 14.7106 35.9955 16.6366 35.9977 17.0573V17.2261C35.9955 17.6626 35.9753 19.7191 35.8132 21.8611L35.7952 22.0973L35.775 22.3313C35.6625 23.6183 35.496 24.8963 35.2463 25.8368C35.0422 26.6017 34.6406 27.2995 34.0818 27.8603C33.5231 28.421 32.8267 28.825 32.0625 29.0318C29.4525 29.7338 19.5322 29.7833 18.1575 29.7856H17.838C17.1427 29.7856 14.2673 29.7721 11.2522 29.6686L10.8698 29.6551L10.674 29.6461L10.2892 29.6303L9.9045 29.6146C7.407 29.5043 5.02875 29.3266 3.933 29.0296C3.1691 28.823 2.4729 28.4193 1.91413 27.859C1.35536 27.2986 0.953655 26.6013 0.74925 25.8368C0.4995 24.8986 0.333 23.6183 0.2205 22.3313L0.2025 22.0951L0.1845 21.8611C0.0734571 20.3364 0.0119247 18.8086 0 17.2801L0 17.0033C0.0045 16.5196 0.0225 14.8478 0.144 13.0028L0.15975 12.7711L0.1665 12.6541L0.1845 12.4201L0.234 11.8351L0.2565 11.6011C0.3645 10.4333 0.52425 9.2993 0.7515 8.44655C0.955561 7.68166 1.35712 6.98385 1.9159 6.42309C2.47469 5.86232 3.17108 5.45831 3.93525 5.25155C5.031 4.95905 7.40925 4.77905 9.90675 4.66655L10.2892 4.6508L10.6762 4.6373L10.8698 4.63055L11.2545 4.6148C13.3958 4.5459 15.5381 4.50764 17.6805 4.50005H18.1147V4.4978ZM14.4 11.7203V22.5608L23.7533 17.1428L14.4 11.7203Z" fill="white"/>
</g>
<defs>
<clipPath id="clip0_2_55">
<rect width="36" height="36" fill="white"/>
</clipPath>
</defs>
</svg>
